<svg width="16" height="21" viewBox="0 0 16 21" fill="none" xmlns="http://www.w3.org/2000/svg">
<path fill-rule="evenodd" clip-rule="evenodd" d="M8.38991 19.8536C10.1881 18.248 15.3669 13.1681 15.3669 7.91658C15.3669 3.72843 11.9717 0.333252 7.78353 0.333252C3.59537 0.333252 0.200195 3.72843 0.200195 7.91658C0.200195 13.1681 5.37891 18.248 7.17715 19.8536C7.52767 20.1666 8.03938 20.1666 8.38991 19.8536ZM7.78353 11.1666C9.57845 11.1666 11.0335 9.71151 11.0335 7.91659C11.0335 6.12166 9.57845 4.66659 7.78353 4.66659C5.9886 4.66659 4.53353 6.12166 4.53353 7.91659C4.53353 9.71151 5.9886 11.1666 7.78353 11.1666Z" fill="#2C833D"/>
</svg>
