<svg width="16" height="13" viewBox="0 0 16 13" fill="none" xmlns="http://www.w3.org/2000/svg">
<path fill-rule="evenodd" clip-rule="evenodd" d="M1.30014 1.4039C0.714355 1.98969 0.714355 2.9325 0.714355 4.81811V8.65533C0.714355 10.5409 0.714355 11.4838 1.30014 12.0695C1.88593 12.6553 2.82874 12.6553 4.71436 12.6553H11.3249C13.2105 12.6553 14.1533 12.6553 14.7391 12.0695C15.3249 11.4838 15.3249 10.5409 15.3249 8.65533V4.81812C15.3249 2.9325 15.3249 1.98969 14.7391 1.4039C14.1533 0.818115 13.2105 0.818115 11.3249 0.818115H4.71436C2.82874 0.818115 1.88593 0.818115 1.30014 1.4039ZM3.43464 3.78957C3.20782 3.63206 2.89626 3.68824 2.73875 3.91505C2.58124 4.14187 2.63743 4.45343 2.86424 4.61094L7.16401 7.59689C7.67847 7.95415 8.36075 7.95415 8.8752 7.59689L13.175 4.61094C13.4018 4.45343 13.458 4.14187 13.3005 3.91505C13.143 3.68824 12.8314 3.63206 12.6046 3.78957L8.3048 6.77552C8.13332 6.89461 7.90589 6.89461 7.73441 6.77552L3.43464 3.78957Z" fill="#2C833D"/>
</svg>
